<?xml version="1.0" encoding="iso-8859-1"?>
<!-- Generator: Adobe Illustrator 19.0.0, SVG Export Plug-In . SVG Version: 6.00 Build 0)  -->
<svg version="1.1" id="Layer_1" xmlns="http://www.w3.org/2000/svg" xmlns:xlink="http://www.w3.org/1999/xlink" x="0px" y="0px"
	 viewBox="0 0 512 512" style="enable-background:new 0 0 512 512;" xml:space="preserve">
<g>
	<g>
		<g>
			<path d="M200.533,42.667H243.2c4.713,0,8.533-3.82,8.533-8.533s-3.82-8.533-8.533-8.533h-42.667
				c-4.713,0-8.533,3.821-8.533,8.533S195.821,42.667,200.533,42.667z"/>
			<path d="M166.4,42.667h8.533c4.713,0,8.533-3.82,8.533-8.533s-3.82-8.533-8.533-8.533H166.4c-4.713,0-8.533,3.821-8.533,8.533
				S161.687,42.667,166.4,42.667z"/>
			<path d="M448,93.867h-93.867V59.733V33.809C354.133,15.136,338.997,0,320.323,0H97.808C79.135,0,63.999,15.136,63.999,33.809
				v25.924V76.8c-4.712,0-8.532,3.821-8.532,8.533v8.533c0,4.712,3.82,8.533,8.532,8.533v8.533c-4.712,0-8.532,3.821-8.532,8.533
				V128c0,4.713,3.82,8.533,8.532,8.533v8.533c-4.712,0-8.532,3.821-8.532,8.533v8.533c0,4.713,3.82,8.533,8.532,8.533V435.2v42.991
				c0,18.673,15.136,33.809,33.809,33.809h222.515c18.673,0,33.809-15.136,33.809-33.809V435.2V281.6H448
				c4.713,0,8.533-3.821,8.533-8.533V102.4C456.533,97.687,452.713,93.867,448,93.867z M97.808,17.067h222.515
				c9.248,0,16.742,7.495,16.742,16.742V51.2h-256V33.809C81.066,24.561,88.56,17.067,97.808,17.067z M81.066,478.191v-34.458
				h105.435c-7.09,6.254-11.567,15.401-11.567,25.6s4.477,19.346,11.567,25.6H97.808C88.56,494.933,81.066,487.439,81.066,478.191z
				 M209.067,486.4c-9.427,0-17.067-7.64-17.067-17.067s7.64-17.067,17.067-17.067c9.427,0,17.067,7.64,17.067,17.067
				S218.494,486.4,209.067,486.4z M320.323,494.933h-88.691c7.09-6.254,11.567-15.401,11.567-25.6s-4.477-19.346-11.567-25.6
				h105.433v34.458C337.066,487.439,329.571,494.933,320.323,494.933z M337.066,426.667h-256v-358.4h256v25.6H243.2h-0.001
				c-4.713,0-8.533,3.82-8.533,8.533v170.667c0,4.713,3.82,8.533,8.533,8.533h0.001h20.086l14.921,37.302
				c1.431,3.576,4.677,5.364,7.923,5.364c3.246,0,6.493-1.788,7.923-5.364l14.921-37.302h28.091V426.667z M439.467,264.533h-93.867
				h-42.401h-0.001c-3.489,0-6.627,2.124-7.923,5.364l-9.143,22.858l-9.143-22.858c-1.296-3.24-4.434-5.364-7.923-5.364h-0.001
				h-17.33v-153.6h93.866h93.867V264.533z"/>
			<circle cx="354.133" cy="145.067" r="8.533"/>
			<path d="M362.667,179.2c0-4.713-3.82-8.533-8.533-8.533h-17.067c-4.713,0-8.533,3.82-8.533,8.533s3.82,8.533,8.533,8.533h8.533
				v34.133h-8.533c-4.713,0-8.533,3.82-8.533,8.533s3.82,8.533,8.533,8.533H371.2c4.713,0,8.533-3.82,8.533-8.533
				s-3.82-8.533-8.533-8.533h-8.533V179.2z"/>
		</g>
	</g>
</g>
<g>
</g>
<g>
</g>
<g>
</g>
<g>
</g>
<g>
</g>
<g>
</g>
<g>
</g>
<g>
</g>
<g>
</g>
<g>
</g>
<g>
</g>
<g>
</g>
<g>
</g>
<g>
</g>
<g>
</g>
</svg>
