<?xml version="1.0" encoding="iso-8859-1"?>
<!-- Generator: Adobe Illustrator 19.0.0, SVG Export Plug-In . SVG Version: 6.00 Build 0)  -->
<svg version="1.1" id="Layer_1" xmlns="http://www.w3.org/2000/svg" xmlns:xlink="http://www.w3.org/1999/xlink" x="0px" y="0px"
	 viewBox="0 0 300 300" style="enable-background:new 0 0 300 300;" xml:space="preserve">
<g>
	<g>
		<g>
			<path d="M111.29,87.097h-6.561c9.89-7.989,16.239-20.197,16.239-33.871v-9.677C120.968,19.539,101.434,0,77.419,0
				S33.871,19.539,33.871,43.548v9.677c0,13.674,6.348,25.882,16.239,33.871h-6.561C19.534,87.097,0,106.635,0,130.645v48.387
				c0,16.011,13.021,29.032,29.032,29.032V300h96.774v-91.935c16.011,0,29.032-13.021,29.032-29.032v-48.387
				C154.839,106.635,135.305,87.097,111.29,87.097z M77.419,9.677c18.619,0,33.774,15.106,33.861,33.711
				c-10.563-0.794-19.902-6.924-24.697-16.519l-4.326-8.656l-4.331,8.656c-5.139,10.287-15.484,16.679-26.985,16.679h-7.394
				C43.548,24.871,58.747,9.677,77.419,9.677z M43.548,53.226h7.394c12.445,0,23.86-5.661,31.316-15.184
				c6.997,8.932,17.487,14.4,29.032,15.053v0.131c0,18.677-15.198,33.871-33.871,33.871S43.548,71.903,43.548,53.226z
				 M85.094,96.774l-7.674,7.674l-7.674-7.674H85.094z M48.387,116.129V96.774h7.674l21.358,21.358l21.358-21.358h7.674v19.355
				c0,6.3,4.06,11.623,9.677,13.626v58.955H38.71v-58.955C44.328,127.752,48.387,122.429,48.387,116.129z M29.032,198.387
				c-10.674,0-19.355-8.681-19.355-19.355h19.355V198.387z M33.871,120.968h-4.839v48.387H9.677v-38.71
				c0-17.027,12.649-31.122,29.033-33.484v18.968C38.71,118.795,36.542,120.968,33.871,120.968z M72.581,290.323H38.71v-9.677
				h33.871V290.323z M116.129,290.323H82.258v-9.677h33.871V290.323z M116.129,270.968H82.258v-53.226h-9.677v53.226H38.71v-72.581
				h77.419V270.968z M125.806,198.387v-19.355h19.355C145.161,189.706,136.481,198.387,125.806,198.387z M145.16,169.355h-19.354
				v-48.387h-4.839c-2.671,0-4.839-2.173-4.839-4.839V97.161c16.384,2.361,29.032,16.456,29.032,33.484V169.355z"/>
			<rect x="87.097" y="125.806" width="19.355" height="9.677"/>
			<path d="M285.484,164.516V16.935C285.484,7.597,277.887,0,268.548,0s-16.936,7.597-16.936,16.935v116.129
				c0,4.002-3.256,7.258-7.258,7.258h-29.032c-4.002,0-7.258-3.256-7.258-7.258v-2.419c16.011,0,29.032-13.021,29.032-29.032V29.032
				C237.097,13.021,224.076,0,208.065,0h-24.194v43.548h24.194v43.548h-24.194v43.548h14.516v2.419
				c0,9.339,7.597,16.935,16.935,16.935h29.032c9.339,0,16.935-7.597,16.935-16.935V16.935c0-4.002,3.256-7.258,7.258-7.258
				c4.002,0,7.258,3.256,7.258,7.258v147.581H174.194V300H300V164.516H285.484z M193.547,120.968V96.774h0.001h4.839v19.355h9.677
				V96.774h9.677V33.871h-24.194V9.677h4.839v19.355h9.677V9.677c10.674,0,19.355,8.681,19.355,19.355v72.581
				c0,10.674-8.681,19.355-19.355,19.355H193.547z M290.323,290.323H183.871v-67.742h106.452V290.323z M290.323,212.904H183.871
				v-38.71h106.452V212.904z"/>
			<rect x="193.548" y="232.258" width="14.516" height="9.677"/>
			<rect x="217.742" y="232.258" width="14.516" height="9.677"/>
			<rect x="241.935" y="232.258" width="14.516" height="9.677"/>
			<rect x="266.129" y="232.258" width="14.516" height="9.677"/>
			<rect x="193.548" y="251.613" width="14.516" height="9.677"/>
			<rect x="217.742" y="251.613" width="14.516" height="9.677"/>
			<rect x="241.935" y="251.613" width="14.516" height="9.677"/>
			<rect x="266.129" y="251.613" width="14.516" height="9.677"/>
			<rect x="193.548" y="270.968" width="14.516" height="9.677"/>
			<rect x="217.742" y="270.968" width="14.516" height="9.677"/>
			<rect x="241.935" y="270.968" width="14.516" height="9.677"/>
			<rect x="266.129" y="270.968" width="14.516" height="9.677"/>
			<rect x="266.129" y="193.548" width="14.516" height="9.677"/>
			<rect x="217.742" y="193.548" width="38.71" height="9.677"/>
		</g>
	</g>
</g>
<g>
</g>
<g>
</g>
<g>
</g>
<g>
</g>
<g>
</g>
<g>
</g>
<g>
</g>
<g>
</g>
<g>
</g>
<g>
</g>
<g>
</g>
<g>
</g>
<g>
</g>
<g>
</g>
<g>
</g>
</svg>
