<?xml version="1.0" encoding="iso-8859-1"?>
<!-- Generator: Adobe Illustrator 19.0.0, SVG Export Plug-In . SVG Version: 6.00 Build 0)  -->
<svg version="1.1" id="Layer_1" xmlns="http://www.w3.org/2000/svg" xmlns:xlink="http://www.w3.org/1999/xlink" x="0px" y="0px"
	 viewBox="0 0 512.001 512.001" style="enable-background:new 0 0 512.001 512.001;" xml:space="preserve">
<g>
	<g>
		<g>
			<path style="fill:#000003;" d="M415.677,0H96.323C66.737,0,42.665,24.07,42.665,53.658v447.676
				c0,5.891,4.776,10.667,10.668,10.667h405.335c5.891,0,10.668-4.777,10.668-10.667V53.658C469.336,24.07,445.266,0,415.677,0z
				 M64,490.665V53.658C64,35.834,78.5,21.335,96.323,21.335h319.354c17.822,0,32.324,14.499,32.324,32.323v437.007H64z"/>
			<path style="fill:#000003;" d="M106.667,192c0-16.457,2.697-32.694,8.015-48.261c1.904-5.576-1.071-11.639-6.646-13.544
				c-5.574-1.904-11.638,1.071-13.542,6.646c-6.077,17.792-9.16,36.351-9.16,55.158c0,29.917,7.907,59.426,22.866,85.334
				c1.978,3.422,5.562,5.335,9.249,5.335c1.809,0,3.644-0.461,5.323-1.431c5.102-2.946,6.851-9.47,3.904-14.572
				C113.586,243.996,106.667,218.177,106.667,192z"/>
			<path style="fill:#000003;" d="M389.23,102.761c-5.101,2.945-6.851,9.47-3.904,14.572c13.088,22.67,20.005,48.489,20.005,74.666
				c0,16.449-2.696,32.687-8.013,48.264c-1.902,5.576,1.075,11.638,6.65,13.541c1.141,0.389,2.303,0.575,3.446,0.575
				c4.438,0,8.582-2.791,10.095-7.224c6.076-17.801,9.157-36.358,9.157-55.156c0-29.917-7.906-59.426-22.864-85.334
				C400.858,101.563,394.331,99.814,389.23,102.761z"/>
			<path style="fill:#000003;" d="M256,63.998c-70.579,0-127.998,57.421-127.998,128.002c0,55.425,35.413,102.728,84.797,120.49
				c-19.023,13.547-31.466,35.763-31.466,60.843c0,41.17,33.495,74.664,74.666,74.664c41.175,0,74.671-33.494,74.671-74.664
				c0-25.081-12.444-47.297-31.467-60.843c49.385-17.76,84.798-65.064,84.798-120.49C384.002,121.419,326.581,63.998,256,63.998z
				 M309.336,373.333c0,29.405-23.927,53.329-53.336,53.329c-29.406,0-53.331-23.924-53.331-53.329
				c0-29.408,23.925-53.333,53.331-53.333C285.408,319.999,309.336,343.924,309.336,373.333z M256,298.664
				c-58.813,0-106.662-47.849-106.662-106.665c0-58.817,47.849-106.667,106.663-106.667c58.817,0,106.667,47.85,106.667,106.667
				C362.667,250.815,314.815,298.664,256,298.664z"/>
			<path style="fill:#000003;" d="M256,106.663c-47.051,0-85.333,38.283-85.333,85.337c0,47.053,38.281,85.334,85.333,85.334
				c47.055,0,85.336-38.28,85.336-85.334C341.336,144.945,303.054,106.663,256,106.663z M256,255.998
				c-35.288,0-63.998-28.71-63.998-63.999c0-35.29,28.709-64.002,63.998-64.002c35.29,0,64.001,28.712,64.001,64.002
				C320.001,227.289,291.29,255.998,256,255.998z"/>
			<path style="fill:#000003;" d="M256,160c-17.644,0-31.999,14.355-31.999,31.999c0,17.645,14.355,32,31.999,32
				c17.647,0,32.003-14.355,32.003-32C288.003,174.356,273.647,160,256,160z M256,202.665c-5.88,0-10.664-4.784-10.664-10.665
				c0-5.88,4.784-10.664,10.664-10.664c5.882,0,10.668,4.784,10.668,10.664C266.668,197.881,261.881,202.665,256,202.665z"/>
			<path style="fill:#000003;" d="M256,341.332c-17.644,0-31.999,14.355-31.999,32s14.355,32,31.999,32
				c17.647,0,32.003-14.355,32.003-32S273.647,341.332,256,341.332z M256,383.998c-5.88,0-10.664-4.784-10.664-10.665
				c0-5.881,4.784-10.665,10.664-10.665c5.882,0,10.668,4.784,10.668,10.665C266.668,379.214,261.882,383.998,256,383.998z"/>
			<path style="fill:#000003;" d="M111.952,121.688c1.661,0.939,3.464,1.386,5.244,1.386c3.719,0,7.332-1.948,9.295-5.416
				l0.186-0.328c2.944-5.103,1.194-11.627-3.909-14.571c-5.103-2.945-11.627-1.194-14.571,3.909l-0.274,0.481
				C105.02,112.277,106.825,118.786,111.952,121.688z"/>
			<path style="fill:#000003;" d="M400.233,262.355c-5.103-2.945-11.627-1.194-14.571,3.91l-0.274,0.481
				c-2.903,5.127-1.098,11.636,4.029,14.538c1.661,0.939,3.464,1.386,5.244,1.386c3.719,0,7.332-1.948,9.295-5.416l0.186-0.327
				C407.085,271.823,405.335,265.299,400.233,262.355z"/>
			<path style="fill:#000003;" d="M106.666,437.329c-5.876,0-10.666,4.792-10.666,10.67c0,5.876,4.791,10.667,10.666,10.667
				c5.875,0,10.668-4.792,10.668-10.667C117.334,442.121,112.541,437.329,106.666,437.329z"/>
			<path style="fill:#000003;" d="M149.332,437.329c-5.877,0-10.669,4.792-10.669,10.67c0,5.876,4.792,10.667,10.669,10.667
				c5.875,0,10.666-4.792,10.666-10.667C159.999,442.121,155.206,437.329,149.332,437.329z"/>
		</g>
	</g>
</g>
<g>
</g>
<g>
</g>
<g>
</g>
<g>
</g>
<g>
</g>
<g>
</g>
<g>
</g>
<g>
</g>
<g>
</g>
<g>
</g>
<g>
</g>
<g>
</g>
<g>
</g>
<g>
</g>
<g>
</g>
</svg>
