<?xml version="1.0" encoding="iso-8859-1"?>
<!-- Generator: Adobe Illustrator 19.0.0, SVG Export Plug-In . SVG Version: 6.00 Build 0)  -->
<svg version="1.1" id="Layer_1" xmlns="http://www.w3.org/2000/svg" xmlns:xlink="http://www.w3.org/1999/xlink" x="0px" y="0px"
	 viewBox="0 0 512 512" style="enable-background:new 0 0 512 512;" xml:space="preserve">
<g>
	<g>
		<path d="M501.801,231.469h-16.726v-30.623c0-5.633-4.567-10.199-10.199-10.199h-31.491v-11.515
			c0-5.633-4.567-10.199-10.199-10.199h-52.982c-5.632,0-10.199,4.566-10.199,10.199v52.336H145.47v-52.336
			c0-5.633-4.566-10.199-10.199-10.199H78.814c-5.633,0-10.199,4.566-10.199,10.199v11.515H37.124
			c-5.633,0-10.199,4.566-10.199,10.199v30.623H10.199C4.566,231.469,0,236.036,0,241.669v28.663
			c0,5.633,4.566,10.199,10.199,10.199h16.726v30.623c0,5.633,4.566,10.199,10.199,10.199h31.491v11.515
			c0,5.633,4.566,10.199,10.199,10.199h56.457c5.633,0,10.199-4.566,10.199-10.199v-52.336h224.533v52.336
			c0,5.633,4.567,10.199,10.199,10.199h52.982c5.632,0,10.199-4.566,10.199-10.199v-11.515h31.491
			c5.632,0,10.199-4.566,10.199-10.199v-30.623h16.727c5.632,0,10.199-4.566,10.199-10.199v-28.663
			C512,236.036,507.433,231.469,501.801,231.469z M26.925,260.131h-6.526v-8.264h6.526V260.131z M68.615,300.953H47.323v-89.908
			h21.292V300.953z M125.072,322.667H89.014V189.331h36.058V322.667z M370.004,260.131H145.47v-8.264h224.533V260.131z
			 M422.986,322.668h-32.583V189.331h32.583V322.668z M464.677,300.953h-21.292v-89.908h21.292V300.953z M491.602,260.131h-6.526
			v-8.264h6.526V260.131z"/>
	</g>
</g>
<g>
	<g>
		<path d="M406.948,240.701c-5.632,0-10.199,4.566-10.199,10.199v56.096c0,5.633,4.567,10.199,10.199,10.199
			c5.632,0,10.199-4.566,10.199-10.199V250.9C417.147,245.267,412.58,240.701,406.948,240.701z"/>
	</g>
</g>
<g>
	<g>
		<path d="M406.948,210.103c-5.632,0-10.199,4.566-10.199,10.199v3.06c0,5.633,4.567,10.199,10.199,10.199
			c5.632,0,10.199-4.566,10.199-10.199v-3.06C417.147,214.669,412.58,210.103,406.948,210.103z"/>
	</g>
</g>
<g>
</g>
<g>
</g>
<g>
</g>
<g>
</g>
<g>
</g>
<g>
</g>
<g>
</g>
<g>
</g>
<g>
</g>
<g>
</g>
<g>
</g>
<g>
</g>
<g>
</g>
<g>
</g>
<g>
</g>
</svg>
