<?xml version="1.0" encoding="iso-8859-1"?>
<!-- Generator: Adobe Illustrator 19.0.0, SVG Export Plug-In . SVG Version: 6.00 Build 0)  -->
<svg version="1.1" id="Capa_1" xmlns="http://www.w3.org/2000/svg" xmlns:xlink="http://www.w3.org/1999/xlink" x="0px" y="0px"
	 viewBox="0 0 463 463" style="enable-background:new 0 0 463 463;" xml:space="preserve">
<g>
	<path d="M431.5,0h-400C14.131,0,0,14.131,0,31.5v400C0,448.869,14.131,463,31.5,463h400c17.369,0,31.5-14.131,31.5-31.5v-400
		C463,14.131,448.869,0,431.5,0z M448,431.5c0,9.098-7.402,16.5-16.5,16.5h-400c-9.098,0-16.5-7.402-16.5-16.5v-400
		C15,22.402,22.402,15,31.5,15h400c9.098,0,16.5,7.402,16.5,16.5V431.5z"/>
	<path d="M423.116,421.043c0.072-0.107,0.134-0.218,0.199-0.327c0.06-0.1,0.123-0.198,0.178-0.301
		c0.061-0.114,0.113-0.231,0.167-0.347c0.05-0.105,0.103-0.209,0.147-0.317c0.047-0.114,0.085-0.23,0.126-0.346
		c0.042-0.115,0.086-0.229,0.121-0.347c0.035-0.116,0.061-0.234,0.09-0.351c0.03-0.12,0.064-0.239,0.088-0.361
		c0.027-0.136,0.043-0.273,0.063-0.41c0.015-0.105,0.035-0.209,0.046-0.315c0.024-0.247,0.037-0.495,0.037-0.744v-92.687
		c0-4.142-3.358-7.5-7.5-7.5s-7.5,3.358-7.5,7.5v74.583L267.7,257.093c-2.929-2.929-7.678-2.929-10.606,0
		c-2.929,2.929-2.929,7.678,0,10.606l141.679,141.679h-74.583c-4.142,0-7.5,3.358-7.5,7.5s3.358,7.5,7.5,7.5h92.689
		c0.247,0,0.494-0.013,0.74-0.037c0.112-0.011,0.221-0.032,0.331-0.048c0.132-0.019,0.264-0.034,0.395-0.06
		c0.126-0.025,0.248-0.059,0.371-0.091c0.114-0.029,0.228-0.054,0.341-0.088c0.121-0.037,0.239-0.082,0.358-0.125
		c0.112-0.04,0.224-0.077,0.335-0.122c0.112-0.047,0.22-0.101,0.329-0.153c0.112-0.053,0.225-0.103,0.335-0.161
		c0.106-0.057,0.207-0.122,0.311-0.183c0.107-0.064,0.215-0.124,0.319-0.194c0.114-0.077,0.222-0.162,0.332-0.244
		c0.086-0.064,0.174-0.124,0.257-0.192c0.383-0.314,0.733-0.665,1.047-1.047c0.07-0.085,0.131-0.175,0.197-0.263
		C422.957,421.261,423.041,421.155,423.116,421.043z"/>
	<path d="M64.227,53.621h74.583c4.142,0,7.5-3.358,7.5-7.5s-3.358-7.5-7.5-7.5H46.121c-0.03,0-0.059,0.004-0.089,0.005
		c-0.217,0.003-0.433,0.012-0.648,0.033c-0.122,0.012-0.24,0.034-0.359,0.052c-0.122,0.018-0.245,0.032-0.367,0.056
		c-0.131,0.026-0.259,0.062-0.388,0.095c-0.108,0.027-0.217,0.051-0.324,0.083c-0.125,0.038-0.246,0.085-0.369,0.129
		c-0.108,0.039-0.218,0.075-0.324,0.119c-0.115,0.047-0.224,0.103-0.336,0.156c-0.11,0.052-0.221,0.101-0.329,0.159
		c-0.107,0.058-0.209,0.123-0.314,0.185c-0.106,0.063-0.213,0.123-0.316,0.192c-0.115,0.077-0.224,0.162-0.334,0.245
		c-0.085,0.064-0.173,0.123-0.256,0.191c-0.383,0.314-0.733,0.665-1.047,1.047c-0.071,0.086-0.132,0.176-0.198,0.264
		c-0.081,0.107-0.164,0.213-0.239,0.324c-0.072,0.107-0.134,0.219-0.2,0.329c-0.06,0.1-0.122,0.197-0.177,0.3
		c-0.061,0.113-0.112,0.23-0.167,0.346c-0.05,0.106-0.103,0.21-0.148,0.319c-0.047,0.113-0.085,0.229-0.126,0.344
		c-0.042,0.116-0.086,0.23-0.122,0.349c-0.035,0.116-0.061,0.234-0.09,0.351c-0.03,0.12-0.064,0.238-0.088,0.36
		c-0.027,0.136-0.043,0.274-0.063,0.411c-0.015,0.105-0.035,0.208-0.045,0.315c-0.024,0.247-0.037,0.495-0.037,0.744v92.687
		c0,4.142,3.358,7.5,7.5,7.5s7.5-3.358,7.5-7.5V64.227L195.3,205.906c1.464,1.464,3.384,2.197,5.303,2.197s3.839-0.732,5.303-2.197
		c2.929-2.929,2.929-7.678,0-10.606L64.227,53.621z"/>
</g>
<g>
</g>
<g>
</g>
<g>
</g>
<g>
</g>
<g>
</g>
<g>
</g>
<g>
</g>
<g>
</g>
<g>
</g>
<g>
</g>
<g>
</g>
<g>
</g>
<g>
</g>
<g>
</g>
<g>
</g>
</svg>
