<?xml version="1.0" encoding="iso-8859-1"?>
<!-- Generator: Adobe Illustrator 19.0.0, SVG Export Plug-In . SVG Version: 6.00 Build 0)  -->
<svg version="1.1" id="Layer_1" xmlns="http://www.w3.org/2000/svg" xmlns:xlink="http://www.w3.org/1999/xlink" x="0px" y="0px"
	 viewBox="0 0 511.092 511.092" style="enable-background:new 0 0 511.092 511.092;" xml:space="preserve">
<g>
	<g>
		<path d="M136.148,3.592C61.072,3.592,0,64.672,0,139.744s61.072,136.148,136.148,136.148c75.072,0,136.148-61.08,136.148-136.152
			S211.224,3.592,136.148,3.592z M136.148,267.888C65.488,267.888,8,210.4,8,139.74S65.488,11.592,136.148,11.592
			S264.296,69.08,264.296,139.74S206.808,267.888,136.148,267.888z"/>
	</g>
</g>
<g>
	<g>
		<path d="M218.612,64.408c-15.028-16.428-34.324-27.896-55.808-33.152c-2.124-0.532-4.308,0.788-4.836,2.936
			c-0.524,2.144,0.788,4.308,2.936,4.836c19.936,4.876,37.852,15.52,51.8,30.776c0.788,0.864,1.868,1.3,2.952,1.3
			c0.964,0,1.932-0.348,2.704-1.044C219.988,68.568,220.1,66.036,218.612,64.408z"/>
	</g>
</g>
<g>
	<g>
		<path d="M243.184,107.756c-2.4-8.064-5.744-15.88-9.932-23.236c-1.096-1.916-3.54-2.592-5.456-1.496
			c-1.916,1.092-2.588,3.536-1.496,5.456c3.888,6.824,6.988,14.084,9.224,21.564c0.516,1.736,2.104,2.856,3.832,2.856
			c0.376,0,0.764-0.056,1.14-0.168C242.612,112.104,243.816,109.872,243.184,107.756z"/>
	</g>
</g>
<g>
	<g>
		<path d="M223.092,135.5h-176c-2.212,0-4,1.788-4,4c0,2.212,1.788,4,4,4h176c2.212,0,4-1.788,4-4
			C227.092,137.288,225.304,135.5,223.092,135.5z"/>
	</g>
</g>
<g>
	<g>
		<path d="M219.092,115.5h-168c-2.212,0-4,1.788-4,4s1.788,4,4,4h168c2.212,0,4-1.788,4-4S221.304,115.5,219.092,115.5z"/>
	</g>
</g>
<g>
	<g>
		<path d="M219.092,155.5h-168c-2.212,0-4,1.788-4,4c0,2.212,1.788,4,4,4h168c2.212,0,4-1.788,4-4
			C223.092,157.288,221.304,155.5,219.092,155.5z"/>
	</g>
</g>
<g>
	<g>
		<path d="M215.092,95.5h-160c-2.212,0-4,1.788-4,4s1.788,4,4,4h160c2.212,0,4-1.788,4-4S217.304,95.5,215.092,95.5z"/>
	</g>
</g>
<g>
	<g>
		<path d="M215.092,175.5h-160c-2.212,0-4,1.788-4,4c0,2.212,1.788,4,4,4h160c2.212,0,4-1.788,4-4
			C219.092,177.288,217.304,175.5,215.092,175.5z"/>
	</g>
</g>
<g>
	<g>
		<path d="M199.092,75.5h-128c-2.212,0-4,1.788-4,4s1.788,4,4,4h128c2.212,0,4-1.788,4-4S201.304,75.5,199.092,75.5z"/>
	</g>
</g>
<g>
	<g>
		<path d="M199.092,195.5h-128c-2.212,0-4,1.788-4,4c0,2.212,1.788,4,4,4h128c2.212,0,4-1.788,4-4
			C203.092,197.288,201.304,195.5,199.092,195.5z"/>
	</g>
</g>
<g>
	<g>
		<path d="M171.092,55.5h-72c-2.212,0-4,1.788-4,4s1.788,4,4,4h72c2.212,0,4-1.788,4-4S173.304,55.5,171.092,55.5z"/>
	</g>
</g>
<g>
	<g>
		<path d="M171.092,215.5h-72c-2.212,0-4,1.788-4,4c0,2.212,1.788,4,4,4h72c2.212,0,4-1.788,4-4
			C175.092,217.288,173.304,215.5,171.092,215.5z"/>
	</g>
</g>
<g>
	<g>
		<path d="M183.092,259.5c-2.212,0-4,1.788-4,4v175.968c0,5.98-3.696,12.032-10.772,12.032h-64.344
			c-6.864,0-12.884-5.62-12.884-12.032V263.5c0-2.212-1.788-4-4-4s-4,1.788-4,4v175.968c0,10.86,9.564,20.032,20.884,20.032h64.344
			c10.7,0,18.772-8.612,18.772-20.032V263.5C187.092,261.288,185.304,259.5,183.092,259.5z"/>
	</g>
</g>
<g>
	<g>
		<path d="M128.412,451.46c-2.184-0.212-4.168,1.34-4.416,3.536l-3.604,32.508h-0.684l-3.76-32.548
			c-0.252-2.188-2.2-3.792-4.432-3.512c-2.192,0.252-3.764,2.236-3.512,4.432l4.172,36.084c0.228,2.016,1.94,3.54,3.972,3.54h7.828
			c2.036,0,3.748-1.532,3.972-3.556l4-36.068C132.188,453.684,130.608,451.708,128.412,451.46z"/>
	</g>
</g>
<g>
	<g>
		<path d="M483.092,115.5c-2.212,0-4,1.788-4,4v92.488l-260.504,27.704c-2.2,0.236-3.792,2.204-3.556,4.4
			c0.22,2.056,1.952,3.58,3.972,3.58c0.14,0,0.28-0.008,0.424-0.028l264.084-28.084c2.036-0.216,3.58-1.928,3.58-3.976V119.5
			C487.092,117.288,485.304,115.5,483.092,115.5z"/>
	</g>
</g>
<g>
	<g>
		<path d="M483.516,59.92L219.432,31.548c-2.22-0.248-4.168,1.356-4.404,3.552c-0.236,2.196,1.352,4.168,3.552,4.404l260.512,27.988
			V87.5c0,2.212,1.788,4,4,4c2.212,0,4-1.788,4-4V63.9C487.092,61.856,485.552,60.14,483.516,59.92z"/>
	</g>
</g>
<g>
	<g>
		<path d="M507.092,71.5h-24c-2.212,0-4,1.788-4,4s1.788,4,4,4h20v120h-20c-2.212,0-4,1.788-4,4c0,2.212,1.788,4,4,4h24
			c2.212,0,4-1.788,4-4v-128C511.092,73.288,509.304,71.5,507.092,71.5z"/>
	</g>
</g>
<g>
	<g>
		<path d="M119.092,487.5c-2.212,0-4,1.788-4,4v12c0,2.212,1.788,4,4,4s4-1.788,4-4v-12
			C123.092,489.288,121.304,487.5,119.092,487.5z"/>
	</g>
</g>
<g>
	<g>
		<path d="M199.092,283.5h-16c-2.212,0-4,1.788-4,4c0,2.212,1.788,4,4,4h12v44h-12c-2.212,0-4,1.788-4,4c0,2.212,1.788,4,4,4h16
			c2.212,0,4-1.788,4-4v-52C203.092,285.288,201.304,283.5,199.092,283.5z"/>
	</g>
</g>
<g>
</g>
<g>
</g>
<g>
</g>
<g>
</g>
<g>
</g>
<g>
</g>
<g>
</g>
<g>
</g>
<g>
</g>
<g>
</g>
<g>
</g>
<g>
</g>
<g>
</g>
<g>
</g>
<g>
</g>
</svg>
