<?xml version='1.0' encoding='iso-8859-1'?>
<!DOCTYPE svg PUBLIC '-//W3C//DTD SVG 1.1//EN' 'http://www.w3.org/Graphics/SVG/1.1/DTD/svg11.dtd'>
<svg version="1.1" xmlns="http://www.w3.org/2000/svg" viewBox="0 0 433.479 433.479" xmlns:xlink="http://www.w3.org/1999/xlink" enable-background="new 0 0 433.479 433.479">
  <g>
    <path d="m425.979,312.852c-19.022,0-27.945-4.836-38.275-10.435-6.487-3.516-13.51-7.317-23.218-9.737v-21.796c5.986,1.914 10.849,4.548 16.069,7.377 10.593,5.741 22.598,12.248 45.424,12.248 4.143,0 7.5-3.358 7.5-7.5s-3.357-7.5-7.5-7.5c-19.022,0-27.945-4.836-38.275-10.435-6.487-3.516-13.51-7.317-23.218-9.737v-148.525c7.32-2.974 12.5-10.152 12.5-18.528 0-11.028-8.972-20-20-20s-20,8.972-20,20c0,8.375 5.18,15.553 12.5,18.528v31.472h-102v-31.472c7.32-2.974 12.5-10.152 12.5-18.528 0-11.028-8.972-20-20-20s-20,8.972-20,20c0,8.375 5.18,15.553 12.5,18.528v164.242c-4.304-1.714-8.136-3.788-12.181-5.98-10.592-5.741-22.597-12.248-45.422-12.248s-34.83,6.507-45.421,12.248c-10.33,5.599-19.251,10.435-38.272,10.435-19.021,0-27.941-4.836-38.271-10.435-10.591-5.741-22.595-12.248-45.42-12.248-4.143,0-7.5,3.358-7.5,7.5s3.357,7.5 7.5,7.5c19.021,0 27.942,4.836 38.271,10.435 10.591,5.741 22.595,12.248 45.419,12.248 22.825,0 34.829-6.507 45.421-12.248 10.33-5.599 19.251-10.435 38.272-10.435s27.943,4.836 38.273,10.435c5.588,3.029 11.572,6.27 19.329,8.658v21.478c-4.304-1.714-8.136-3.788-12.181-5.98-10.592-5.741-22.597-12.248-45.422-12.248s-34.83,6.507-45.421,12.248c-10.33,5.599-19.251,10.435-38.272,10.435-19.021,0-27.941-4.836-38.271-10.435-10.591-5.741-22.595-12.248-45.42-12.248-4.143,0-7.5,3.358-7.5,7.5s3.357,7.5 7.5,7.5c19.021,0 27.942,4.836 38.271,10.435 10.591,5.741 22.595,12.248 45.419,12.248 22.825,0 34.829-6.507 45.421-12.248 10.33-5.599 19.251-10.435 38.272-10.435s27.943,4.836 38.273,10.435c10.592,5.741 22.597,12.248 45.423,12.248s34.832-6.507 45.424-12.248c10.33-5.6 19.252-10.435 38.275-10.435s27.946,4.836 38.276,10.435c10.593,5.741 22.598,12.248 45.424,12.248 4.143,0 7.5-3.358 7.5-7.5s-3.353-7.5-7.496-7.5zm-68.993-229.568c2.757,1.42109e-14 5,2.243 5,5s-2.243,5-5,5-5-2.243-5-5 2.243-5 5-5zm-7.5,70v71.996h-102v-71.996h102zm-109.5-70c2.757,0 5,2.243 5,5s-2.243,5-5,5-5-2.243-5-5 2.243-5 5-5zm7.5,156.995h102v12.782c-2.28-0.15-4.673-0.235-7.207-0.235-22.826,0-34.832,6.507-45.424,12.248-10.33,5.6-19.252,10.435-38.275,10.435-4.136,0-7.794-0.229-11.094-0.645v-34.585zm49.369,62.138c-10.33,5.599-19.252,10.435-38.275,10.435-4.136,0-7.794-0.229-11.094-0.645v-22.267c3.399,0.364 7.075,0.569 11.094,0.569 22.826,0 34.832-6.507 45.424-12.248 10.33-5.599 19.252-10.435 38.275-10.435 2.581,0 4.969,0.092 7.207,0.26v22.318c-2.28-0.15-4.673-0.235-7.207-0.235-22.826,0-34.832,6.507-45.424,12.248z"/>
    <path d="m425.979,350.195c-19.022,0-27.945-4.836-38.275-10.435-10.593-5.741-22.598-12.248-45.425-12.248-22.826,0-34.832,6.507-45.424,12.248-10.33,5.599-19.252,10.435-38.275,10.435-19.022,0-27.944-4.836-38.274-10.435-10.592-5.741-22.597-12.248-45.422-12.248s-34.83,6.507-45.421,12.248c-10.33,5.599-19.251,10.435-38.272,10.435-19.021,0-27.941-4.836-38.271-10.435-10.591-5.741-22.595-12.248-45.42-12.248-4.143,0-7.5,3.358-7.5,7.5s3.357,7.5 7.5,7.5c19.021,0 27.942,4.836 38.271,10.435 10.591,5.741 22.595,12.248 45.419,12.248 22.825,0 34.829-6.507 45.421-12.248 10.33-5.599 19.251-10.435 38.272-10.435s27.943,4.836 38.273,10.435c10.592,5.741 22.597,12.248 45.423,12.248s34.832-6.507 45.424-12.248c10.33-5.6 19.252-10.435 38.275-10.435s27.946,4.836 38.276,10.435c10.593,5.741 22.598,12.248 45.424,12.248 4.143,0 7.5-3.358 7.5-7.5s-3.356-7.5-7.499-7.5z"/>
  </g>
</svg>
