<?xml version="1.0" encoding="iso-8859-1"?>
<!-- Generator: Adobe Illustrator 19.0.0, SVG Export Plug-In . SVG Version: 6.00 Build 0)  -->
<svg version="1.1" id="Layer_1" xmlns="http://www.w3.org/2000/svg" xmlns:xlink="http://www.w3.org/1999/xlink" x="0px" y="0px"
	 viewBox="0 0 512 512" style="enable-background:new 0 0 512 512;" xml:space="preserve">
<g>
	<g>
		<g>
			<path d="M503.916,495.832h-1.078c-4.465,0-8.084,3.619-8.084,8.084c0,4.466,3.62,8.084,8.084,8.084h1.078
				c4.465,0,8.084-3.618,8.084-8.084C512,499.45,508.38,495.832,503.916,495.832z"/>
			<path d="M9.162,495.832H8.084C3.62,495.832,0,499.45,0,503.916C0,508.382,3.62,512,8.084,512h1.078
				c4.465,0,8.084-3.618,8.084-8.084C17.246,499.45,13.627,495.832,9.162,495.832z"/>
			<path d="M460.8,97.011h-24.253V61.979c0-15.302-8.417-28.967-21.768-35.873C413.026,11.422,400.495,0,385.347,0h-21.558
				c-15.152,0-27.685,11.428-29.434,26.116c-13.179,6.892-21.766,20.787-21.766,35.863v35.032H199.411V61.979
				c0-15.198-8.552-28.988-21.767-35.868C175.892,11.426,163.36,0,148.21,0h-21.558c-15.148,0-27.678,11.421-29.432,26.103
				c-13.353,6.906-21.768,20.563-21.768,35.876v35.032H51.2c-28.231,0-51.2,22.969-51.2,51.2v64.674c0,28.231,22.969,51.2,51.2,51.2
				h45.811v13.474c0,10.401,8.463,18.863,18.863,18.863h13.474v167.074H88.926c-13.373,0-24.253,10.88-24.253,24.253
				c0,2.833,0.488,5.554,1.385,8.084H40.421c-4.465,0-8.084,3.619-8.084,8.084c0,4.466,3.62,8.084,8.084,8.084h431.158
				c4.465,0,8.084-3.618,8.084-8.084c0-4.466-3.62-8.084-8.084-8.084h-25.638c0.897-2.53,1.385-5.251,1.385-8.084
				c0-13.372-10.879-24.253-24.253-24.253h-40.421V296.421h13.474c10.401,0,18.863-8.463,18.863-18.863v-13.474H460.8
				c28.231,0,51.2-22.969,51.2-51.2V148.21C512,119.979,489.031,97.011,460.8,97.011z M363.789,16.168h21.558
				c7.43,0,13.474,6.044,13.474,13.474c0,7.43-6.044,13.474-13.474,13.474h-21.558c-7.43,0-13.474-6.044-13.474-13.474
				C350.316,22.212,356.36,16.168,363.789,16.168z M328.758,61.979c0-7.276,3.332-14.093,8.75-18.635
				c4.955,9.465,14.876,15.94,26.281,15.94h21.558c11.417,0,21.349-6.49,26.299-15.972c5.457,4.515,8.733,11.273,8.733,18.667
				v35.032h-91.621V61.979z M126.653,16.168h21.558c7.43,0,13.474,6.044,13.474,13.474c0,7.43-6.044,13.474-13.474,13.474h-21.558
				c-7.43,0-13.474-6.044-13.474-13.474C113.179,22.212,119.223,16.168,126.653,16.168z M91.621,61.979
				c0-7.4,3.274-14.155,8.733-18.669c4.949,9.484,14.88,15.974,26.298,15.974h21.558c11.411,0,21.336-6.48,26.289-15.954
				c5.424,4.524,8.743,11.313,8.743,18.649v35.032H91.621V61.979z M115.874,280.253c-1.485,0-2.695-1.208-2.695-2.695v-13.474
				h48.505v13.474c0,1.486-1.209,2.695-2.695,2.695h-21.558H115.874z M185.937,495.832h-97.01c-4.458,0-8.084-3.626-8.084-8.084
				c0-4.458,3.626-8.084,8.084-8.084h97.01c4.458,0,8.084,3.626,8.084,8.084C194.021,492.206,190.395,495.832,185.937,495.832z
				 M303.196,495.832h-94.391c0.897-2.53,1.385-5.251,1.385-8.084c0-13.372-10.879-24.253-24.253-24.253h-40.421V296.421h13.474
				c10.401,0,18.863-8.463,18.863-18.863v-13.474h156.295v13.474c0,10.401,8.463,18.863,18.863,18.863h13.474v167.074h-40.421
				c-13.373,0-24.253,10.88-24.253,24.253C301.811,490.58,302.299,493.302,303.196,495.832z M423.074,479.663
				c4.458,0,8.084,3.626,8.084,8.084c0,4.458-3.626,8.084-8.084,8.084h-97.01c-4.458,0-8.084-3.626-8.084-8.084
				c0-4.458,3.626-8.084,8.084-8.084H423.074z M398.821,277.558c0,1.486-1.209,2.695-2.695,2.695h-21.558H353.01
				c-1.485,0-2.695-1.208-2.695-2.695v-13.474h48.505V277.558z M495.832,212.884c0,19.317-15.716,35.032-35.032,35.032h-53.895H51.2
				c-19.316,0-35.032-15.715-35.032-35.032V148.21c0-19.317,15.716-35.032,35.032-35.032h409.6
				c19.316,0,35.032,15.715,35.032,35.032V212.884z"/>
			<path d="M256.539,140.126h-1.078c-4.465,0-8.084,3.618-8.084,8.084c0,4.466,3.62,8.084,8.084,8.084h1.078
				c4.465,0,8.084-3.618,8.084-8.084C264.623,143.745,261.004,140.126,256.539,140.126z"/>
			<path d="M450.021,140.126H299.116c-4.465,0-8.084,3.618-8.084,8.084c0,4.466,3.62,8.084,8.084,8.084h150.905
				c1.485,0,2.695,1.208,2.695,2.695v21.558c0,4.466,3.62,8.084,8.084,8.084s8.084-3.618,8.084-8.084v-21.558
				C468.884,148.589,460.422,140.126,450.021,140.126z"/>
		</g>
	</g>
</g>
<g>
</g>
<g>
</g>
<g>
</g>
<g>
</g>
<g>
</g>
<g>
</g>
<g>
</g>
<g>
</g>
<g>
</g>
<g>
</g>
<g>
</g>
<g>
</g>
<g>
</g>
<g>
</g>
<g>
</g>
</svg>
