<?xml version="1.0" encoding="iso-8859-1"?>
<!-- Generator: Adobe Illustrator 19.0.0, SVG Export Plug-In . SVG Version: 6.00 Build 0)  -->
<svg version="1.1" id="Layer_1" xmlns="http://www.w3.org/2000/svg" xmlns:xlink="http://www.w3.org/1999/xlink" x="0px" y="0px"
	 viewBox="0 0 486.401 486.401" style="enable-background:new 0 0 486.401 486.401;" xml:space="preserve">
<g>
	<g>
		<g>
			<path d="M243.201,182.983c5.246,0,9.5-4.254,9.5-9.5v-22.584c0-5.246-4.254-9.5-9.5-9.5c-5.246,0-9.5,4.254-9.5,9.5v22.584
				C233.701,178.729,237.954,182.983,243.201,182.983z"/>
			<path d="M252.701,343.918V212.76c0-5.246-4.254-9.5-9.5-9.5c-5.246,0-9.5,4.254-9.5,9.5v131.158
				c-20.727,4.387-36.332,22.82-36.332,44.835c0,25.271,20.56,45.832,45.832,45.832c25.272,0,45.832-20.56,45.832-45.832
				C289.033,366.738,273.427,348.305,252.701,343.918z M243.201,415.584c-14.796,0-26.832-12.036-26.832-26.832
				c0-14.795,12.036-26.831,26.832-26.831s26.832,12.036,26.832,26.831C270.033,403.548,257.997,415.584,243.201,415.584z"/>
			<path d="M294.924,303.287V50.742C294.924,22.763,272.161,0,244.182,0c-27.978,0-50.741,22.763-50.741,50.742v251.366
				c-30.431,17.698-49.097,49.915-49.097,85.437c0,54.509,44.347,98.856,98.856,98.856c54.509,0,98.856-44.347,98.856-98.856
				C342.057,353.003,324.14,321.228,294.924,303.287z M243.201,467.4c-44.032,0-79.856-35.824-79.856-79.856
				c0-30.302,16.815-57.627,43.883-71.312c3.198-1.616,5.214-4.895,5.214-8.478V50.742C212.441,33.239,226.68,19,244.182,19
				c17.503,0,31.741,14.239,31.741,31.742v6.21H257.93c-5.246,0-9.5,4.254-9.5,9.5c0,5.246,4.254,9.5,9.5,9.5h17.994v22.242H257.93
				c-5.246,0-9.5,4.254-9.5,9.5c0,5.246,4.254,9.5,9.5,9.5h17.994v191.585c0,3.498,1.922,6.713,5.004,8.369
				c25.986,13.959,42.128,40.934,42.128,70.397C323.057,431.576,287.232,467.4,243.201,467.4z"/>
		</g>
	</g>
</g>
<g>
</g>
<g>
</g>
<g>
</g>
<g>
</g>
<g>
</g>
<g>
</g>
<g>
</g>
<g>
</g>
<g>
</g>
<g>
</g>
<g>
</g>
<g>
</g>
<g>
</g>
<g>
</g>
<g>
</g>
</svg>
