<?xml version="1.0" encoding="iso-8859-1"?>
<!-- Generator: Adobe Illustrator 19.0.0, SVG Export Plug-In . SVG Version: 6.00 Build 0)  -->
<svg version="1.1" id="Capa_1" xmlns="http://www.w3.org/2000/svg" xmlns:xlink="http://www.w3.org/1999/xlink" x="0px" y="0px"
	 viewBox="0 0 60 60" style="enable-background:new 0 0 60 60;" xml:space="preserve">
<g>
	<g>
		<circle cx="3" cy="25" r="1"/>
		<circle cx="9" cy="25" r="1"/>
		<circle cx="15" cy="25" r="1"/>
		<circle cx="6" cy="28" r="1"/>
		<circle cx="12" cy="28" r="1"/>
		<circle cx="3" cy="37" r="1"/>
		<circle cx="9" cy="37" r="1"/>
		<circle cx="15" cy="37" r="1"/>
		<circle cx="6" cy="40" r="1"/>
		<circle cx="12" cy="40" r="1"/>
		<circle cx="3" cy="43" r="1"/>
		<circle cx="9" cy="43" r="1"/>
		<circle cx="15" cy="43" r="1"/>
		<circle cx="6" cy="46" r="1"/>
		<circle cx="12" cy="46" r="1"/>
		<circle cx="3" cy="31" r="1"/>
		<circle cx="9" cy="31" r="1"/>
		<circle cx="15" cy="31" r="1"/>
		<circle cx="6" cy="34" r="1"/>
		<circle cx="12" cy="34" r="1"/>
		<path d="M18,26v-4h-4v-5h26c1.303,0,2.363-1.061,2.363-2.363v-1.273C42.363,12.061,41.303,11,40,11H4.713
			C3.217,11,2,12.217,2,13.713V15v2v5H0v27h16h2h42V26H18z M4,13.713C4,13.319,4.319,13,4.713,13H40c0.2,0,0.363,0.163,0.363,0.363
			v1.273C40.363,14.837,40.2,15,40,15H14H4V13.713z M4,17h8v5H4V17z M16,25v1v5v6v6v4h-4H6H2v-4v-6v-6v-6v-1h1h6h5h1h1V25z M58,47
			H18v-5.61c1.146,1.04,2.531,1.61,4,1.61c1.818,0,3.515-0.86,4.777-2.423c0.876-1.084,2.021-1.682,3.223-1.682
			s2.347,0.598,3.223,1.682C34.485,42.14,36.182,43,38,43s3.515-0.86,4.777-2.423c0.876-1.084,2.021-1.682,3.223-1.682
			s2.347,0.598,3.223,1.682C50.485,42.14,52.182,43,54,43c1.469,0,2.854-0.57,4-1.61V47z M58,38.963
			c-0.292,0-0.58,0.112-0.777,0.356C56.347,40.403,55.202,41,54,41s-2.347-0.597-3.223-1.681c-1.263-1.563-2.959-2.424-4.777-2.424
			s-3.515,0.861-4.777,2.424C40.347,40.403,39.202,41,38,41s-2.347-0.597-3.223-1.681c-1.263-1.563-2.959-2.424-4.777-2.424
			s-3.515,0.861-4.777,2.424C24.347,40.403,23.202,41,22,41s-2.347-0.597-3.223-1.681c-0.197-0.244-0.486-0.357-0.777-0.356v-3.677
			c1.146,1.04,2.531,1.611,4,1.611c1.818,0,3.515-0.861,4.777-2.424c0.876-1.084,2.021-1.681,3.223-1.681s2.347,0.597,3.223,1.681
			c1.263,1.563,2.959,2.424,4.777,2.424s3.515-0.861,4.777-2.424c0.876-1.084,2.021-1.681,3.223-1.681s2.347,0.597,3.223,1.681
			c1.263,1.563,2.959,2.424,4.777,2.424c1.469,0,2.854-0.571,4-1.611V38.963z M58,32.858c-0.292,0-0.58,0.113-0.777,0.357
			c-0.876,1.084-2.021,1.682-3.223,1.682s-2.347-0.598-3.223-1.682c-1.263-1.563-2.959-2.423-4.777-2.423s-3.515,0.86-4.777,2.423
			c-0.876,1.084-2.021,1.682-3.223,1.682s-2.347-0.598-3.223-1.682c-1.263-1.563-2.959-2.423-4.777-2.423s-3.515,0.86-4.777,2.423
			c-0.876,1.084-2.021,1.682-3.223,1.682s-2.347-0.598-3.223-1.682c-0.197-0.244-0.486-0.356-0.777-0.357V28h40V32.858z"/>
	</g>
</g>
<g>
</g>
<g>
</g>
<g>
</g>
<g>
</g>
<g>
</g>
<g>
</g>
<g>
</g>
<g>
</g>
<g>
</g>
<g>
</g>
<g>
</g>
<g>
</g>
<g>
</g>
<g>
</g>
<g>
</g>
</svg>
